<?xml version="1.0" encoding="UTF-8"?>
<svg xmlns="http://www.w3.org/2000/svg" width="688" height="559" viewBox="0 0 688 559" version="1.1">
  <path d="M 667.00,557.50 L 639.00,557.50 L 638.50,556.00 L 648.50,542.00 L 648.00,538.50 L 638.00,540.50 L 625.00,539.50 L 613.00,531.50 L 605.50,519.00 L 601.50,505.00 L 617.00,498.50 L 637.00,484.50 L 647.50,471.00 L 653.50,453.00 L 652.50,442.00 L 648.50,432.00 L 638.00,422.50 L 618.00,416.50 L 600.00,416.50 L 558.00,424.50 L 559.50,438.00 L 557.50,448.00 L 517.00,557.50 L 503.00,557.50 L 502.00,554.50 L 495.00,557.50 L 459.00,557.50 L 458.50,554.00 L 467.50,529.00 L 472.00,523.50 L 489.00,520.50 L 503.00,520.50 L 505.00,518.50 L 513.50,495.00 L 513.00,491.50 L 484.00,500.50 L 480.00,500.50 L 480.50,494.00 L 489.50,469.00 L 495.00,460.50 L 516.00,455.50 L 531.00,456.50 L 533.50,455.00 L 537.50,441.00 L 537.50,429.00 L 536.00,428.50 L 465.00,443.50 L 463.50,458.00 L 427.00,557.50 L 381.00,557.50 L 380.50,556.00 L 401.50,543.00 L 417.50,527.00 L 425.50,515.00 L 432.50,498.00 L 433.50,481.00 L 429.50,473.00 L 423.00,467.50 L 411.00,463.50 L 395.00,463.50 L 380.00,466.50 L 331.50,480.00 L 330.50,495.00 L 307.00,557.50 L 281.50,557.00 L 296.50,516.00 L 310.50,488.00 L 311.00,483.50 L 273.00,493.50 L 271.50,506.00 L 253.00,557.50 L 209.00,557.50 L 216.50,534.00 L 223.50,519.00 L 231.50,509.00 L 231.00,505.50 L 189.00,513.50 L 186.50,529.00 L 175.00,557.50 L 81.50,557.00 L 76.50,544.00 L 78.50,530.00 L 86.50,520.00 L 96.00,515.50 L 108.00,515.50 L 114.00,517.50 L 121.50,524.00 L 125.50,534.00 L 125.50,542.00 L 120.50,555.00 L 124.00,555.50 L 134.00,551.50 L 143.50,541.00 L 146.50,532.00 L 146.50,520.00 L 141.50,509.00 L 128.50,496.00 L 118.00,490.50 L 107.00,487.50 L 86.00,488.50 L 63.00,497.50 L 53.00,505.50 L 39.50,524.00 L 34.50,541.00 L 35.00,557.50 L 11.00,557.50 L 9.50,547.00 L 12.50,530.00 L 19.50,515.00 L 30.50,500.00 L 53.00,478.50 L 84.50,458.00 L 90.50,440.00 L 98.50,428.00 L 106.50,420.00 L 124.00,407.50 L 137.50,401.00 L 137.50,399.00 L 124.50,390.00 L 109.50,373.00 L 102.50,360.00 L 98.50,344.00 L 99.50,317.00 L 106.50,298.00 L 116.50,284.00 L 138.50,266.00 L 132.50,248.00 L 132.50,232.00 L 134.50,224.00 L 131.00,219.50 L 123.50,215.00 L 120.50,208.00 L 120.50,206.00 L 129.00,206.50 L 130.50,204.00 L 123.50,189.00 L 106.00,182.50 L 89.50,171.00 L 81.50,159.00 L 77.50,143.00 L 79.50,129.00 L 84.50,118.00 L 88.50,112.00 L 105.50,97.00 L 101.50,83.00 L 101.50,65.00 L 106.50,48.00 L 114.50,36.00 L 118.50,32.00 L 123.50,32.00 L 124.50,51.00 L 127.50,64.00 L 134.50,73.00 L 138.00,73.50 L 150.00,61.50 L 176.00,43.50 L 188.00,37.50 L 212.00,29.50 L 231.00,26.50 L 257.00,26.50 L 278.00,31.50 L 277.50,11.00 L 280.00,9.50 L 287.00,10.50 L 300.50,23.00 L 309.50,40.00 L 323.00,46.50 L 341.00,58.50 L 367.50,86.00 L 384.50,115.00 L 391.50,132.00 L 399.50,160.00 L 406.00,171.50 L 418.00,181.50 L 448.50,199.00 L 463.50,212.00 L 470.50,221.00 L 482.50,245.00 L 485.50,262.00 L 485.50,278.00 L 482.50,293.00 L 475.50,308.00 L 481.50,324.00 L 483.50,336.00 L 481.50,358.00 L 470.50,381.00 L 455.00,395.50 L 454.50,403.00 L 458.50,421.00 L 452.00,424.50 L 441.00,435.50 L 438.50,434.00 L 429.50,389.00 L 418.50,360.00 L 403.00,341.50 L 388.00,334.50 L 373.00,333.50 L 356.00,338.50 L 336.00,350.50 L 296.00,382.50 L 287.00,387.50 L 280.50,388.00 L 280.50,384.00 L 327.00,338.50 L 327.50,333.00 L 321.50,313.00 L 320.50,292.00 L 318.00,290.50 L 306.50,309.00 L 285.00,335.50 L 266.00,352.50 L 252.00,360.50 L 247.50,380.00 L 235.50,394.00 L 223.00,401.50 L 210.00,406.50 L 163.00,415.50 L 139.00,425.50 L 127.00,433.50 L 117.00,443.50 L 109.50,454.00 L 107.00,462.50 L 123.00,466.50 L 132.00,471.50 L 157.00,452.50 L 169.00,446.50 L 176.00,445.50 L 176.50,449.00 L 154.50,473.00 L 149.00,481.50 L 149.00,484.50 L 154.00,485.50 L 168.00,475.50 L 183.00,468.50 L 206.00,463.50 L 230.00,465.50 L 247.50,472.00 L 256.00,477.50 L 260.00,477.50 L 299.00,464.50 L 325.00,460.50 L 396.00,441.50 L 403.00,440.50 L 419.00,442.50 L 437.00,450.50 L 444.50,436.00 L 450.00,431.50 L 474.00,421.50 L 571.00,398.50 L 597.00,394.50 L 628.00,395.50 L 642.00,399.50 L 664.00,413.50 L 675.50,434.00 L 677.50,454.00 L 672.50,475.00 L 661.50,494.00 L 650.50,505.00 L 635.50,516.00 L 637.00,518.50 L 659.00,516.50 L 667.00,522.50 L 671.50,534.00 L 671.50,546.00 L 667.00,557.50 Z M 281.50,94.00 L 291.50,86.00 L 295.50,76.00 L 297.50,54.00 L 296.50,47.00 L 293.00,40.50 L 291.50,41.00 L 283.50,67.00 L 275.50,79.00 L 267.50,87.00 L 269.00,91.50 L 274.00,94.50 L 281.50,94.00 Z M 125.50,88.00 L 120.00,77.50 L 117.00,76.50 L 119.50,87.00 L 125.50,88.00 Z M 232.50,343.00 L 250.00,336.50 L 264.00,326.50 L 297.50,292.00 L 313.50,266.00 L 324.00,236.50 L 328.00,236.50 L 333.00,239.50 L 340.00,238.50 L 346.50,235.00 L 355.50,226.00 L 364.50,209.00 L 369.50,184.00 L 368.50,167.00 L 366.00,165.50 L 358.50,174.00 L 355.50,181.00 L 354.50,204.00 L 350.50,216.00 L 342.00,223.50 L 336.50,223.00 L 335.50,216.00 L 338.50,209.00 L 338.50,191.00 L 341.50,182.00 L 352.00,166.50 L 365.50,160.00 L 363.00,156.50 L 355.50,157.00 L 350.50,160.00 L 338.50,174.00 L 324.50,206.00 L 320.50,212.00 L 317.50,212.00 L 315.50,198.00 L 301.50,162.00 L 298.00,137.50 L 277.00,136.50 L 262.50,129.00 L 257.00,124.50 L 252.50,117.00 L 248.00,97.50 L 246.00,97.50 L 228.50,124.00 L 204.00,149.50 L 186.00,163.50 L 157.50,181.00 L 160.00,184.50 L 169.50,189.00 L 179.00,201.50 L 182.50,214.00 L 182.50,230.00 L 178.50,250.00 L 183.00,257.50 L 193.00,265.50 L 193.00,268.50 L 176.50,265.00 L 167.50,254.00 L 167.50,244.00 L 172.50,231.00 L 173.00,222.50 L 160.50,223.00 L 154.00,213.50 L 151.00,212.50 L 149.50,213.00 L 146.50,226.00 L 146.50,242.00 L 151.50,259.00 L 179.50,297.00 L 199.00,329.50 L 213.00,341.50 L 219.00,343.50 L 232.50,343.00 Z M 136.50,167.00 L 136.50,165.00 L 116.50,155.00 L 106.50,143.00 L 103.50,143.00 L 105.50,153.00 L 111.00,159.50 L 126.00,166.50 L 136.50,167.00 Z M 154.50,200.00 L 155.50,197.00 L 153.00,195.50 L 143.00,191.50 L 139.50,192.00 L 143.00,200.50 L 154.50,200.00 Z M 176.50,495.00 L 217.00,485.50 L 242.00,482.50 L 242.50,481.00 L 242.00,479.50 L 218.00,479.50 L 206.00,481.50 L 173.50,493.00 L 173.50,495.00 L 176.50,495.00 Z" fill="#FFFFFF" fill-rule="evenodd" clip-rule="evenodd"/>
</svg>
